STARTFONT 2.1
COMMENT +
COMMENT  Copyright 1984-1989, 1994 Adobe Systems Incorporated.
COMMENT  Copyright 1988, 1994 Digital Equipment Corporation.
COMMENT  Copyright 1996 BIZNET Poland, Inc.
COMMENT
COMMENT  Permission to use, copy, modify, distribute and sell this software
COMMENT  and its documentation for any purpose and without fee is hereby
COMMENT  granted, provided that the above copyright notices appear in all
COMMENT  copies and that both those copyright notices and this permission
COMMENT  notice appear in supporting documentation, and that the names of
COMMENT  Adobe Systems and Digital Equipment Corporation not be used in
COMMENT  advertising or publicity pertaining to distribution of the software
COMMENT  without specific, written prior permission.  Adobe Systems and
COMMENT  Digital Equipment Corporation make no representations about the
COMMENT  suitability of this software for any purpose.  It is provided "as
COMMENT  is" without express or implied warranty.
COMMENT -
FONT -BIZNET-Anagnostiko-Bold-I-Normal--18-180-75-75-P-111-ISO8859-2
SIZE 18 75 75
FONTBOUNDINGBOX 20 18 -5 -4
STARTPROPERTIES 25
FOUNDRY "BIZNET"
FAMILY_NAME "BIZNET Anagnostiko"
WEIGHT_NAME "Bold"
SLANT "I"
SETWIDTH_NAME "Normal"
ADD_STYLE_NAME ""
PIXEL_SIZE 18
POINT_SIZE 180
RESOLUTION_X 75
RESOLUTION_Y 75
SPACING "P"
AVERAGE_WIDTH 111
CHARSET_REGISTRY "ISO8859"
CHARSET_ENCODING "2"
CAP_HEIGHT 14
X_HEIGHT 9
FONT_ASCENT 16
FONT_DESCENT 4
FACE_NAME "BIZNET Anagnostiko Bold Italic"
DEFAULT_CHAR 32
RELATIVE_SETWIDTH 50
RELATIVE_WEIGHT 70
CHARSET_COLLECTIONS "ASCII ISO8859-2"
COPYRIGHT "Copyright (c) 1984, 1987 Adobe Systems Incorporated. All Rights Reserved. Copyright (c) 1988, 1991 Digital Equipment Corporation. All Rights Reserved. Copyright (c) 1996 BIZNET Poland, Inc. All Rights Reserved."
NOTICE "The name "BIZNET" is a registered trademark of BIZNET Poland, Inc."
ENDPROPERTIES
CHARS 190
STARTCHAR space
ENCODING 32
SWIDTH 287 0
DWIDTH 5 0
BBX 1 1 0 0
BITMAP
00
ENDCHAR
STARTCHAR exclam
ENCODING 33
SWIDTH 333 0
DWIDTH 8 0
BBX 7 14 0 0
BITMAP
0C
1E
1E
1C
1C
38
38
30
30
00
60
F0
F0
60
ENDCHAR
STARTCHAR quotedbl
ENCODING 34
SWIDTH 400 0
DWIDTH 9 0
BBX 6 6 1 7
BITMAP
CC
CC
CC
CC
CC
CC
ENDCHAR
STARTCHAR numbersign
ENCODING 35
SWIDTH 606 0
DWIDTH 11 0
BBX 10 14 0 0
BITMAP
0900
0900
0900
7FC0
7FC0
1200
1200
1200
FF80
FF80
2400
2400
2400
2400
ENDCHAR
STARTCHAR dollar
ENCODING 36
SWIDTH 574 0
DWIDTH 11 0
BBX 10 17 1 -3
BITMAP
0200
0F80
34C0
25C0
6580
7400
7C00
3F00
1F80
0B80
6980
E980
CB00
FE00
1800
1000
1000
ENDCHAR
STARTCHAR percent
ENCODING 37
SWIDTH 889 0
DWIDTH 15 0
BBX 14 15 0 -1
BITMAP
38C0
6740
64C0
C480
C580
C900
CB38
7264
0664
04C4
0CC4
08C8
18C8
1070
1000
ENDCHAR
STARTCHAR ampersand
ENCODING 38
SWIDTH 889 0
DWIDTH 18 0
BBX 17 14 0 0
BITMAP
01E000
073000
0E3000
0E2000
0F4000
078000
0F8F00
33C600
63C400
E1E800
E0F080
E0F900
F1FE00
3E3C00
ENDCHAR
STARTCHAR quoteright
ENCODING 39
SWIDTH 259 0
DWIDTH 5 0
BBX 4 7 0 7
BITMAP
60
F0
F0
70
20
40
80
ENDCHAR
STARTCHAR parenleft
ENCODING 40
SWIDTH 407 0
DWIDTH 7 0
BBX 6 16 0 -2
BITMAP
0C
18
30
30
60
60
60
C0
C0
C0
C0
C0
60
60
30
18
ENDCHAR
STARTCHAR parenright
ENCODING 41
SWIDTH 407 0
DWIDTH 8 0
BBX 6 16 0 -2
BITMAP
60
30
18
18
0C
0C
0C
0C
0C
18
18
18
30
30
60
C0
ENDCHAR
STARTCHAR asterisk
ENCODING 42
SWIDTH 500 0
DWIDTH 9 0
BBX 8 8 0 2
BITMAP
0C
6C
6B
1F
F8
D6
36
30
ENDCHAR
STARTCHAR plus
ENCODING 43
SWIDTH 606 0
DWIDTH 11 0
BBX 10 10 0 1
BITMAP
0C00
0C00
0C00
0C00
FFC0
FFC0
0C00
0C00
0C00
0C00
ENDCHAR
STARTCHAR comma
ENCODING 44
SWIDTH 287 0
DWIDTH 5 0
BBX 4 7 0 -3
BITMAP
60
F0
F0
70
20
40
80
ENDCHAR
STARTCHAR minus
ENCODING 45
SWIDTH 606 0
DWIDTH 11 0
BBX 9 2 1 5
BITMAP
FF80
FF80
ENDCHAR
STARTCHAR period
ENCODING 46
SWIDTH 287 0
DWIDTH 5 0
BBX 4 4 0 0
BITMAP
60
F0
F0
60
ENDCHAR
STARTCHAR slash
ENCODING 47
SWIDTH 278 0
DWIDTH 7 0
BBX 6 15 0 -1
BITMAP
0C
0C
0C
18
18
18
30
30
30
60
60
60
C0
C0
C0
ENDCHAR
STARTCHAR zero
ENCODING 48
SWIDTH 574 0
DWIDTH 11 0
BBX 9 14 1 0
BITMAP
0E00
3B00
7380
7380
7380
E380
E380
E380
E380
E700
E700
E700
6E00
3800
ENDCHAR
STARTCHAR one
ENCODING 49
SWIDTH 574 0
DWIDTH 11 0
BBX 7 14 2 0
BITMAP
06
1E
7E
0E
0E
0C
1C
1C
1C
38
38
38
38
FE
ENDCHAR
STARTCHAR two
ENCODING 50
SWIDTH 574 0
DWIDTH 11 0
BBX 9 14 1 0
BITMAP
1F00
2780
7380
7380
3380
0380
0700
0600
0C00
1800
3080
7F80
FF00
FF00
ENDCHAR
STARTCHAR three
ENCODING 51
SWIDTH 574 0
DWIDTH 11 0
BBX 9 14 1 0
BITMAP
1E00
2300
7380
7380
3380
0700
0C00
0600
0700
6700
E700
C700
CE00
7C00
ENDCHAR
STARTCHAR four
ENCODING 52
SWIDTH 574 0
DWIDTH 11 0
BBX 9 14 1 0
BITMAP
0300
0700
0700
0F00
1700
1700
2700
4E00
4E00
8E00
FF80
0E00
0E00
3F80
ENDCHAR
STARTCHAR five
ENCODING 53
SWIDTH 574 0
DWIDTH 11 0
BBX 10 14 1 0
BITMAP
1FC0
1F80
1F00
3000
2000
3F00
2780
0380
0380
6380
E300
C700
C600
7800
ENDCHAR
STARTCHAR six
ENCODING 54
SWIDTH 574 0
DWIDTH 11 0
BBX 9 14 1 0
BITMAP
0F00
3980
3380
7300
7000
EF00
F380
E380
E380
E380
E300
E700
6600
3800
ENDCHAR
STARTCHAR seven
ENCODING 55
SWIDTH 574 0
DWIDTH 11 0
BBX 9 14 1 0
BITMAP
7F80
7F80
FF80
8300
0600
0600
0C00
0C00
1C00
1C00
3800
3800
3800
3000
ENDCHAR
STARTCHAR eight
ENCODING 56
SWIDTH 574 0
DWIDTH 11 0
BBX 9 14 1 0
BITMAP
0F00
3980
3080
7080
7900
3E00
1E00
3F00
6780
C380
C380
C300
E600
7800
ENDCHAR
STARTCHAR nine
ENCODING 57
SWIDTH 574 0
DWIDTH 11 0
BBX 9 14 1 0
BITMAP
0E00
3300
7380
6380
E380
E380
E380
E780
7B80
0700
6700
E600
CE00
7800
ENDCHAR
STARTCHAR colon
ENCODING 58
SWIDTH 287 0
DWIDTH 6 0
BBX 5 9 0 0
BITMAP
30
78
78
30
00
60
F0
F0
60
ENDCHAR
STARTCHAR semicolon
ENCODING 59
SWIDTH 287 0
DWIDTH 6 0
BBX 5 12 0 -3
BITMAP
30
78
78
30
00
60
F0
F0
70
20
40
80
ENDCHAR
STARTCHAR less
ENCODING 60
SWIDTH 606 0
DWIDTH 10 0
BBX 9 9 0 1
BITMAP
0180
0780
1E00
7800
E000
7800
1E00
0780
0180
ENDCHAR
STARTCHAR equal
ENCODING 61
SWIDTH 606 0
DWIDTH 10 0
BBX 9 6 0 3
BITMAP
FF80
FF80
0000
0000
FF80
FF80
ENDCHAR
STARTCHAR greater
ENCODING 62
SWIDTH 606 0
DWIDTH 10 0
BBX 9 9 0 1
BITMAP
C000
F000
3C00
0F00
0380
0F00
3C00
F000
C000
ENDCHAR
STARTCHAR question
ENCODING 63
SWIDTH 481 0
DWIDTH 8 0
BBX 7 14 0 0
BITMAP
7C
CE
8E
1E
3C
78
F0
E4
78
00
60
F0
F0
60
ENDCHAR
STARTCHAR at
ENCODING 64
SWIDTH 747 0
DWIDTH 15 0
BBX 14 14 0 0
BITMAP
07F0
1C18
300C
6764
4CE4
CC64
98C4
98CC
98C8
99D8
CE70
4000
7030
1FE0
ENDCHAR
STARTCHAR A
ENCODING 65
SWIDTH 741 0
DWIDTH 13 0
BBX 14 14 -2 0
BITMAP
01C0
01C0
03C0
03C0
07E0
04E0
0CE0
08F0
1870
1070
3FF0
2078
6078
F0FC
ENDCHAR
STARTCHAR B
ENCODING 66
SWIDTH 759 0
DWIDTH 15 0
BBX 14 14 0 0
BITMAP
3FF8
0E3C
0E1C
1E1C
1C38
1C70
3FC0
3CF0
3838
3838
7838
7078
70F0
FFC0
ENDCHAR
STARTCHAR C
ENCODING 67
SWIDTH 759 0
DWIDTH 14 0
BBX 13 14 0 0
BITMAP
07E8
1E38
3C18
7810
7810
F000
E000
E000
E000
E000
F010
7010
3860
0FC0
ENDCHAR
STARTCHAR D
ENCODING 68
SWIDTH 833 0
DWIDTH 16 0
BBX 15 14 0 0
BITMAP
3FE0
0E38
0E1C
1E1E
1C1E
1C0E
3C0E
3C0E
381E
381C
783C
7078
70F0
FFC0
ENDCHAR
STARTCHAR E
ENCODING 69
SWIDTH 741 0
DWIDTH 15 0
BBX 14 14 0 0
BITMAP
3FFC
0E1C
0E08
1E08
1C28
1C60
3FE0
3CC0
3840
3848
7818
7030
7070
FFF0
ENDCHAR
STARTCHAR F
ENCODING 70
SWIDTH 704 0
DWIDTH 15 0
BBX 14 14 0 0
BITMAP
3FFC
0E1C
0E08
1E08
1C28
1C60
3FE0
3CC0
3840
3840
7800
7000
7000
FC00
ENDCHAR
STARTCHAR G
ENCODING 71
SWIDTH 815 0
DWIDTH 15 0
BBX 14 14 0 0
BITMAP
07F4
1E1C
3C0C
7808
7808
F000
E000
E000
E1FC
E070
F070
70E0
39E0
0FA0
ENDCHAR
STARTCHAR H
ENCODING 72
SWIDTH 870 0
DWIDTH 17 0
BBX 16 14 0 0
BITMAP
3F3F
0E0E
0E0E
1E1E
1C1C
1C1C
3FFC
3C3C
3838
3838
7878
7070
7070
FCFC
ENDCHAR
STARTCHAR I
ENCODING 73
SWIDTH 444 0
DWIDTH 9 0
BBX 8 14 0 0
BITMAP
3F
0E
0E
1E
1C
1C
3C
3C
38
38
78
70
70
FC
ENDCHAR
STARTCHAR J
ENCODING 74
SWIDTH 667 0
DWIDTH 12 0
BBX 13 14 -2 0
BITMAP
01F8
0070
0070
00F0
00E0
00E0
01E0
01E0
01C0
61C0
F3C0
F380
4780
3E00
ENDCHAR
STARTCHAR K
ENCODING 75
SWIDTH 778 0
DWIDTH 16 0
BBX 16 14 0 0
BITMAP
3F1F
0E0C
0E18
0E30
1C60
1CC0
1DC0
3FC0
3DE0
38F0
7870
7078
703C
FCFE
ENDCHAR
STARTCHAR L
ENCODING 76
SWIDTH 704 0
DWIDTH 14 0
BBX 13 14 0 0
BITMAP
3F00
0E00
0E00
1E00
1C00
1C00
3C00
3800
3800
3808
7818
7030
7070
FFF0
ENDCHAR
STARTCHAR M
ENCODING 77
SWIDTH 944 0
DWIDTH 19 0
BBX 19 14 -1 0
BITMAP
3C03E0
1C07C0
1E07C0
1E0F80
1E0F80
1F1B80
171380
37B380
23E380
23E700
21C700
21C700
618700
F08FC0
ENDCHAR
STARTCHAR N
ENCODING 78
SWIDTH 852 0
DWIDTH 15 0
BBX 16 14 -1 0
BITMAP
3C0F
1E06
1E04
1F04
1F04
1784
13CC
33C8
21E8
21E8
20F8
2078
6070
F030
ENDCHAR
STARTCHAR O
ENCODING 79
SWIDTH 833 0
DWIDTH 15 0
BBX 14 14 0 0
BITMAP
07C0
1C70
3838
783C
701C
F01C
E01C
E01C
E03C
E038
E078
7070
38E0
0F80
ENDCHAR
STARTCHAR P
ENCODING 80
SWIDTH 741 0
DWIDTH 14 0
BBX 14 14 0 0
BITMAP
3FF0
0E38
0E1C
1E1C
1C1C
1C3C
3C78
3FE0
3800
3800
7800
7000
7000
FC00
ENDCHAR
STARTCHAR Q
ENCODING 81
SWIDTH 833 0
DWIDTH 15 0
BBX 14 17 0 -3
BITMAP
07C0
1C70
3838
783C
701C
F01C
E01C
E01C
E03C
E638
F978
71F0
39E0
0FC0
01C8
01F0
00E0
ENDCHAR
STARTCHAR R
ENCODING 82
SWIDTH 796 0
DWIDTH 15 0
BBX 14 14 0 0
BITMAP
3FF8
0E3C
0E1C
1E1C
1C38
1C70
3FC0
3DE0
38E0
38E0
7870
7074
707C
FC38
ENDCHAR
STARTCHAR S
ENCODING 83
SWIDTH 685 0
DWIDTH 13 0
BBX 12 14 0 0
BITMAP
0F90
3870
3030
7020
7820
7E00
3F80
1FC0
07E0
41E0
40E0
C0C0
E1C0
9F00
ENDCHAR
STARTCHAR T
ENCODING 84
SWIDTH 722 0
DWIDTH 13 0
BBX 13 14 0 0
BITMAP
7FF8
6738
C710
8F10
8E10
0E00
1E00
1E00
1C00
1C00
3C00
3800
3800
FE00
ENDCHAR
STARTCHAR U
ENCODING 85
SWIDTH 833 0
DWIDTH 15 0
BBX 15 14 0 0
BITMAP
7E1E
3C0C
3C08
3808
7818
7810
7810
7010
7030
F020
F020
F060
78C0
3F80
ENDCHAR
STARTCHAR V
ENCODING 86
SWIDTH 741 0
DWIDTH 14 0
BBX 14 14 0 0
BITMAP
FC3C
7818
7810
7830
3820
3C60
3C40
1CC0
1C80
1F80
0F00
0F00
0E00
0600
ENDCHAR
STARTCHAR W
ENCODING 87
SWIDTH 944 0
DWIDTH 20 0
BBX 20 14 0 0
BITMAP
FCFCF0
787860
787840
787840
38F880
38B880
3CBC80
3D1D00
1D1D00
1D1D00
1E1E00
1E1E00
0E0E00
0C0C00
ENDCHAR
STARTCHAR X
ENCODING 88
SWIDTH 741 0
DWIDTH 14 0
BBX 16 14 -2 0
BITMAP
1F9F
0F0E
070C
0798
03B0
03E0
01C0
03C0
07E0
0CE0
18F0
3070
7078
F8FC
ENDCHAR
STARTCHAR Y
ENCODING 89
SWIDTH 704 0
DWIDTH 13 0
BBX 13 14 0 0
BITMAP
FC78
7830
7820
3C40
3C40
1E80
1E80
0F00
0F00
1E00
1E00
1E00
1E00
3F00
ENDCHAR
STARTCHAR Z
ENCODING 90
SWIDTH 704 0
DWIDTH 14 0
BBX 13 14 0 0
BITMAP
3FF8
30F8
61F0
41E0
03C0
0780
0F80
0F00
1E00
3C00
7C10
F830
F060
FFE0
ENDCHAR
STARTCHAR bracketleft
ENCODING 91
SWIDTH 407 0
DWIDTH 7 0
BBX 6 16 0 -2
BITMAP
3C
30
30
30
30
60
60
60
60
60
C0
C0
C0
C0
C0
F0
ENDCHAR
STARTCHAR backslash
ENCODING 92
SWIDTH 606 0
DWIDTH 11 0
BBX 8 14 1 0
BITMAP
C0
C0
60
60
30
30
18
18
0C
0C
06
06
03
03
ENDCHAR
STARTCHAR bracketright
ENCODING 93
SWIDTH 407 0
DWIDTH 7 0
BBX 6 16 0 -2
BITMAP
3C
0C
0C
0C
0C
18
18
18
18
18
30
30
30
30
30
F0
ENDCHAR
STARTCHAR asciicircum
ENCODING 94
SWIDTH 606 0
DWIDTH 10 0
BBX 9 9 0 5
BITMAP
0800
1C00
1C00
3600
3600
6300
6300
C180
C180
ENDCHAR
STARTCHAR underscore
ENCODING 95
SWIDTH 500 0
DWIDTH 10 0
BBX 10 2 0 -3
BITMAP
FFC0
FFC0
ENDCHAR
STARTCHAR quoteleft
ENCODING 96
SWIDTH 259 0
DWIDTH 5 0
BBX 4 7 0 7
BITMAP
10
20
40
E0
F0
F0
60
ENDCHAR
STARTCHAR a
ENCODING 97
SWIDTH 667 0
DWIDTH 12 0
BBX 11 9 0 0
BITMAP
0DC0
33C0
71C0
E1C0
E1C0
E380
E380
67A0
39C0
ENDCHAR
STARTCHAR b
ENCODING 98
SWIDTH 611 0
DWIDTH 11 0
BBX 10 14 0 0
BITMAP
7800
3800
3800
3800
7000
7700
7980
71C0
F1C0
E1C0
E1C0
E380
6300
3C00
ENDCHAR
STARTCHAR c
ENCODING 99
SWIDTH 537 0
DWIDTH 10 0
BBX 9 9 0 0
BITMAP
0F00
3180
7380
E300
E000
E000
E000
6300
3C00
ENDCHAR
STARTCHAR d
ENCODING 100
SWIDTH 667 0
DWIDTH 13 0
BBX 12 14 0 0
BITMAP
00F0
0070
0070
0070
00E0
0EE0
31E0
70E0
E0E0
E1C0
E1C0
E1C0
63D0
3CE0
ENDCHAR
STARTCHAR e
ENCODING 101
SWIDTH 519 0
DWIDTH 10 0
BBX 9 9 0 0
BITMAP
0F00
3180
7180
E380
E700
F800
E000
6300
3C00
ENDCHAR
STARTCHAR f
ENCODING 102
SWIDTH 389 0
DWIDTH 7 0
BBX 9 18 0 -4
BITMAP
0700
1D80
1980
3800
3800
FE00
7000
7000
7000
7000
7000
E000
E000
E000
E000
E000
E000
C000
ENDCHAR
STARTCHAR g
ENCODING 103
SWIDTH 611 0
DWIDTH 12 0
BBX 13 15 -1 -4
BITMAP
0018
0038
07C0
18E0
38E0
38E0
38C0
0F00
1800
3800
3F80
7FC0
C0C0
C1C0
7F00
ENDCHAR
STARTCHAR h
ENCODING 104
SWIDTH 685 0
DWIDTH 12 0
BBX 11 14 0 0
BITMAP
7800
3800
3800
3800
7000
7380
77C0
79C0
71C0
E1C0
E380
E380
E3A0
E3C0
ENDCHAR
STARTCHAR i
ENCODING 105
SWIDTH 389 0
DWIDTH 6 0
BBX 5 13 0 0
BITMAP
38
38
00
00
F0
70
70
70
E0
E0
E0
E8
F0
ENDCHAR
STARTCHAR j
ENCODING 106
SWIDTH 370 0
DWIDTH 5 0
BBX 10 17 -5 -4
BITMAP
01C0
01C0
0000
0000
0780
0380
0380
0380
0700
0700
0700
0700
0E00
0E00
CE00
CC00
7000
ENDCHAR
STARTCHAR k
ENCODING 107
SWIDTH 648 0
DWIDTH 11 0
BBX 11 14 0 0
BITMAP
7800
3800
3800
3800
7000
7380
77C0
79C0
7180
F600
E700
E720
E3C0
E380
ENDCHAR
STARTCHAR l
ENCODING 108
SWIDTH 389 0
DWIDTH 6 0
BBX 5 14 0 0
BITMAP
78
38
38
38
70
70
70
70
70
E0
E0
E0
E8
F0
ENDCHAR
STARTCHAR m
ENCODING 109
SWIDTH 944 0
DWIDTH 18 0
BBX 17 9 0 0
BITMAP
F38E00
77DF00
79E700
71C700
71C700
E38E00
E38E00
E38E80
E38F00
ENDCHAR
STARTCHAR n
ENCODING 110
SWIDTH 685 0
DWIDTH 12 0
BBX 11 9 0 0
BITMAP
F380
77C0
79C0
71C0
71C0
E380
E380
E3A0
E3C0
ENDCHAR
STARTCHAR o
ENCODING 111
SWIDTH 574 0
DWIDTH 11 0
BBX 10 9 0 0
BITMAP
0F00
3180
71C0
E1C0
E1C0
E1C0
E380
6300
3C00
ENDCHAR
STARTCHAR p
ENCODING 112
SWIDTH 648 0
DWIDTH 12 0
BBX 12 13 -1 -4
BITMAP
3DC0
1E60
1C70
1C70
3870
3870
38E0
38C0
3F00
7000
7000
7000
F800
ENDCHAR
STARTCHAR q
ENCODING 113
SWIDTH 630 0
DWIDTH 12 0
BBX 11 13 0 -4
BITMAP
0E60
31E0
70E0
E0E0
E1C0
E1C0
E1C0
63C0
3DC0
0380
0380
0380
07C0
ENDCHAR
STARTCHAR r
ENCODING 114
SWIDTH 519 0
DWIDTH 9 0
BBX 9 9 0 0
BITMAP
F380
7780
7B00
7000
7000
E000
E000
E000
E000
ENDCHAR
STARTCHAR s
ENCODING 115
SWIDTH 481 0
DWIDTH 10 0
BBX 9 9 0 0
BITMAP
0F00
3380
7300
7800
3E00
0F00
6700
E600
7800
ENDCHAR
STARTCHAR t
ENCODING 116
SWIDTH 407 0
DWIDTH 8 0
BBX 7 12 1 0
BITMAP
38
38
38
FE
70
70
70
E0
E0
E0
E8
F0
ENDCHAR
STARTCHAR u
ENCODING 117
SWIDTH 685 0
DWIDTH 12 0
BBX 11 9 0 0
BITMAP
F1C0
71C0
71C0
71C0
E380
E380
E780
FBA0
73C0
ENDCHAR
STARTCHAR v
ENCODING 118
SWIDTH 556 0
DWIDTH 10 0
BBX 9 9 0 0
BITMAP
F300
7380
7180
7080
E080
E100
E300
7E00
3800
ENDCHAR
STARTCHAR w
ENCODING 119
SWIDTH 833 0
DWIDTH 16 0
BBX 15 9 0 0
BITMAP
F1CC
71CE
71C6
71C2
E382
E384
E38C
7DF8
38E0
ENDCHAR
STARTCHAR x
ENCODING 120
SWIDTH 574 0
DWIDTH 11 0
BBX 10 9 0 0
BITMAP
38C0
79C0
1E00
1C00
0E00
1E00
3740
E780
C300
ENDCHAR
STARTCHAR y
ENCODING 121
SWIDTH 519 0
DWIDTH 10 0
BBX 10 13 -1 -4
BITMAP
30C0
78C0
B840
1C80
1C80
0F00
0F00
0600
0600
0400
C800
F000
6000
ENDCHAR
STARTCHAR z
ENCODING 122
SWIDTH 519 0
DWIDTH 11 0
BBX 10 9 0 0
BITMAP
1EC0
3F80
4300
0600
0C00
1800
3080
7F00
DE00
ENDCHAR
STARTCHAR braceleft
ENCODING 123
SWIDTH 407 0
DWIDTH 8 0
BBX 7 16 0 -2
BITMAP
0E
18
18
18
30
30
30
C0
60
60
60
60
60
60
60
38
ENDCHAR
STARTCHAR bar
ENCODING 124
SWIDTH 606 0
DWIDTH 11 0
BBX 2 14 4 0
BITMAP
C0
C0
C0
C0
C0
C0
C0
C0
C0
C0
C0
C0
C0
C0
ENDCHAR
STARTCHAR braceright
ENCODING 125
SWIDTH 407 0
DWIDTH 8 0
BBX 7 16 0 -2
BITMAP
38
0C
0C
0C
0C
0C
0C
06
18
18
18
18
30
30
30
E0
ENDCHAR
STARTCHAR asciitilde
ENCODING 126
SWIDTH 606 0
DWIDTH 11 0
BBX 10 3 0 5
BITMAP
78C0
FFC0
C780
ENDCHAR
STARTCHAR Aogonek
ENCODING 161
SWIDTH 741 0
DWIDTH 13 0
BBX 14 18 -2 -4
BITMAP
01C0
01C0
03C0
03C0
07E0
04E0
0CE0
08F0
1870
1070
3FF0
2078
6078
F0FC
0018
0070
0064
0078
ENDCHAR
STARTCHAR breve
ENCODING 162
SWIDTH 424 0
DWIDTH 9 0
BBX 5 3 2 10
BITMAP
88
F8
70
ENDCHAR
STARTCHAR Lslash
ENCODING 163
SWIDTH 704 0
DWIDTH 14 0
BBX 13 14 0 0
BITMAP
3F00
1E00
1E00
1E00
1E00
3C00
3F00
FC00
3C00
7808
7818
7830
7870
FFF0
ENDCHAR
STARTCHAR currency
ENCODING 164
SWIDTH 574 0
DWIDTH 12 0
BBX 11 9 0 2
BITMAP
DF60
FFE0
3180
60C0
60C0
60C0
3180
FFE0
DF60
ENDCHAR
STARTCHAR Lcaron
ENCODING 165
SWIDTH 704 0
DWIDTH 14 0
BBX 13 14 0 0
BITMAP
3F40
0EE0
0EE0
1E60
1C40
1C40
3C80
3800
3800
3808
7818
7030
7070
FFF0
ENDCHAR
STARTCHAR Sacute
ENCODING 166
SWIDTH 685 0
DWIDTH 13 0
BBX 12 18 0 0
BITMAP
0070
00E0
0180
0000
0F90
3870
3030
7020
7820
7E00
3F80
1FC0
07E0
41E0
40E0
C0C0
E1C0
9F00
ENDCHAR
STARTCHAR section
ENCODING 167
SWIDTH 500 0
DWIDTH 12 0
BBX 11 17 0 -3
BITMAP
07C0
0C60
08E0
0CC0
0E00
1F00
2780
63C0
71C0
78C0
3D80
1E00
0F00
6700
E300
C600
7C00
ENDCHAR
STARTCHAR dieresis
ENCODING 168
SWIDTH 333 0
DWIDTH 7 0
BBX 6 3 0 10
BITMAP
CC
CC
CC
ENDCHAR
STARTCHAR Scaron
ENCODING 169
SWIDTH 685 0
DWIDTH 13 0
BBX 12 18 0 0
BITMAP
0660
06C0
0380
0300
0000
0F90
3870
3030
7020
7820
7E00
3F80
1FC0
07E0
41E0
40E0
E0E0
9FC0
ENDCHAR
STARTCHAR Scedilla
ENCODING 170
SWIDTH 685 0
DWIDTH 13 0
BBX 12 18 0 -4
BITMAP
0F90
3870
3030
7020
7820
7E00
3F80
1FC0
07E0
41E0
40E0
C0C0
E1C0
9F00
0800
1C00
0C00
3800
ENDCHAR
STARTCHAR Tcaron
ENCODING 171
SWIDTH 722 0
DWIDTH 13 0
BBX 13 18 0 0
BITMAP
0660
06C0
0380
0300
0000
7FF8
6738
C710
8F10
8E10
0E00
1E00
1E00
1C00
1C00
3C00
3800
FE00
ENDCHAR
STARTCHAR Zacute
ENCODING 172
SWIDTH 704 0
DWIDTH 14 0
BBX 13 18 0 0
BITMAP
0070
00E0
0180
0000
3FF8
30F8
61F0
41E0
03C0
0780
0F80
0F00
1E00
3C00
7C10
F830
F060
FFE0
ENDCHAR
STARTCHAR hyphen
ENCODING 173
SWIDTH 333 0
DWIDTH 6 0
BBX 5 2 0 4
BITMAP
F8
F8
ENDCHAR
STARTCHAR Zcaron
ENCODING 174
SWIDTH 704 0
DWIDTH 14 0
BBX 13 18 0 0
BITMAP
0330
0360
01C0
0180
0000
3FF8
30F8
61F0
41E0
03C0
0780
0F80
0F00
1E00
3C10
7C30
F860
FFC0
ENDCHAR
STARTCHAR Zdotaccent
ENCODING 175
SWIDTH 704 0
DWIDTH 14 0
BBX 13 18 0 0
BITMAP
0180
03C0
0180
0000
3FF8
30F8
61F0
41E0
03C0
0780
0F80
0F00
1E00
3C00
7C10
F830
F060
FFE0
ENDCHAR
STARTCHAR degree
ENCODING 176
SWIDTH 685 0
DWIDTH 13 0
BBX 6 6 0 8
BITMAP
78
CC
84
84
CC
78
ENDCHAR
STARTCHAR aogonek
ENCODING 177
SWIDTH 667 0
DWIDTH 12 0
BBX 11 13 0 -4
BITMAP
0DC0
33C0
71C0
E1C0
E1C0
E380
E380
67A0
39C0
00C0
0380
0320
03C0
ENDCHAR
STARTCHAR ogonek
ENCODING 178
SWIDTH 472 0
DWIDTH 10 0
BBX 4 4 3 -4
BITMAP
20
C0
D0
60
ENDCHAR
STARTCHAR lslash
ENCODING 179
SWIDTH 389 0
DWIDTH 8 0
BBX 7 14 0 0
BITMAP
3C
1C
1C
1C
38
3E
F8
38
38
70
70
70
74
38
ENDCHAR
STARTCHAR acute
ENCODING 180
SWIDTH 333 0
DWIDTH 6 0
BBX 5 4 0 10
BITMAP
18
38
70
C0
ENDCHAR
STARTCHAR lcaron
ENCODING 181
SWIDTH 453 0
DWIDTH 7 0
BBX 9 14 0 0
BITMAP
7900
3B80
3B80
3980
7100
7100
7200
7000
7000
E000
E000
E000
E800
F000
ENDCHAR
STARTCHAR sacute
ENCODING 182
SWIDTH 481 0
DWIDTH 10 0
BBX 10 14 0 0
BITMAP
00C0
01C0
0380
0600
0000
0F00
3380
7300
7800
3E00
0F00
6700
E600
7800
ENDCHAR
STARTCHAR caron
ENCODING 183
SWIDTH 472 0
DWIDTH 10 0
BBX 6 4 2 10
BITMAP
CC
D8
70
60
ENDCHAR
STARTCHAR cedilla
ENCODING 184
SWIDTH 472 0
DWIDTH 10 0
BBX 4 4 3 -4
BITMAP
20
70
30
E0
ENDCHAR
STARTCHAR scaron
ENCODING 185
SWIDTH 481 0
DWIDTH 10 0
BBX 10 14 0 0
BITMAP
0CC0
0D80
0700
0600
0000
0F00
3380
7300
7800
3E00
0F00
6700
E600
7800
ENDCHAR
STARTCHAR scedilla
ENCODING 186
SWIDTH 481 0
DWIDTH 10 0
BBX 9 13 0 -4
BITMAP
0F00
3380
7300
7800
3E00
0F00
6700
E600
7800
1000
3800
1800
7000
ENDCHAR
STARTCHAR tcaron
ENCODING 187
SWIDTH 407 0
DWIDTH 8 0
BBX 10 17 1 0
BITMAP
0080
01C0
01C0
00C0
0080
3880
3900
3800
FE00
7000
7000
7000
E000
E000
E000
E800
F000
ENDCHAR
STARTCHAR zacute
ENCODING 188
SWIDTH 519 0
DWIDTH 11 0
BBX 11 14 0 0
BITMAP
0060
00E0
01C0
0300
0000
1EC0
3F80
4300
0600
0C00
1800
3080
7F00
DE00
ENDCHAR
STARTCHAR hungarumlaut
ENCODING 189
SWIDTH 660 0
DWIDTH 14 0
BBX 10 4 2 10
BITMAP
18C0
39C0
7380
C600
ENDCHAR
STARTCHAR zcaron
ENCODING 190
SWIDTH 519 0
DWIDTH 11 0
BBX 11 14 0 0
BITMAP
0660
06C0
0380
0300
0000
1EC0
3F80
4300
0600
0C00
1800
3080
7F00
DE00
ENDCHAR
STARTCHAR zdotaccent
ENCODING 191
SWIDTH 519 0
DWIDTH 11 0
BBX 10 13 0 0
BITMAP
0300
0780
0300
0000
1EC0
3F80
4300
0600
0C00
1800
3080
7F00
DE00
ENDCHAR
STARTCHAR Racute
ENCODING 192
SWIDTH 796 0
DWIDTH 15 0
BBX 14 18 0 0
BITMAP
0070
00E0
0180
0000
3FF8
0E3C
0E1C
1E1C
1C38
1C70
3FC0
3DE0
38E0
38E0
7870
7074
707C
FC38
ENDCHAR
STARTCHAR Aacute
ENCODING 193
SWIDTH 741 0
DWIDTH 13 0
BBX 14 18 -2 0
BITMAP
0070
00E0
0180
0000
01C0
01C0
03C0
03C0
07E0
04E0
0CE0
08E0
1870
1070
3FF0
2078
6078
F0FC
ENDCHAR
STARTCHAR Acircumflex
ENCODING 194
SWIDTH 741 0
DWIDTH 13 0
BBX 14 18 -2 0
BITMAP
00E0
01B0
0330
0000
01C0
01C0
03C0
03C0
07E0
04E0
0CE0
08E0
1870
1070
3FF0
2078
6078
F0FC
ENDCHAR
STARTCHAR Abreve
ENCODING 195
SWIDTH 741 0
DWIDTH 13 0
BBX 14 18 -2 0
BITMAP
0220
03E0
01C0
0000
01C0
01C0
03C0
03C0
07E0
04E0
0CE0
08F0
1870
1070
3FF0
2078
6078
F0FC
ENDCHAR
STARTCHAR Adieresis
ENCODING 196
SWIDTH 741 0
DWIDTH 13 0
BBX 14 18 -2 0
BITMAP
0330
0330
0330
0000
01C0
01C0
03C0
03C0
07E0
04E0
0CE0
08E0
1870
1070
3FF0
2078
6078
F0FC
ENDCHAR
STARTCHAR Lacute
ENCODING 197
SWIDTH 704 0
DWIDTH 14 0
BBX 13 18 0 0
BITMAP
0380
0700
0C00
0000
3F00
0E00
0E00
1E00
1C00
1C00
3C00
3800
3800
3808
7818
7030
7070
FFF0
ENDCHAR
STARTCHAR Cacute
ENCODING 198
SWIDTH 759 0
DWIDTH 14 0
BBX 13 18 0 0
BITMAP
0038
0070
00C0
0000
07E8
1E38
3C18
7810
7810
F000
E000
E000
E000
E000
F010
7010
3860
0FC0
ENDCHAR
STARTCHAR Ccedilla
ENCODING 199
SWIDTH 759 0
DWIDTH 14 0
BBX 13 18 0 -4
BITMAP
07E8
1E38
3C18
7808
7808
F000
F000
E000
E000
E000
F008
7018
3870
0FC0
0200
0700
0300
0E00
ENDCHAR
STARTCHAR Ccaron
ENCODING 200
SWIDTH 759 0
DWIDTH 14 0
BBX 13 18 0 0
BITMAP
0330
0360
01C0
0180
0000
07E8
1E38
3C18
7810
7810
F000
E000
E000
E000
E010
F010
7860
3FC0
ENDCHAR
STARTCHAR Eacute
ENCODING 201
SWIDTH 741 0
DWIDTH 15 0
BBX 14 18 0 0
BITMAP
0038
0070
00C0
0000
3FFC
0E1C
0E08
1E08
1C28
1C60
3FE0
3CC0
3840
3848
7818
7030
7070
FFF0
ENDCHAR
STARTCHAR Eogonek
ENCODING 202
SWIDTH 741 0
DWIDTH 15 0
BBX 14 18 0 -4
BITMAP
3FFC
0E1C
0E08
1E08
1C28
1C60
3FE0
3CC0
3840
3848
7818
7030
7070
FFF0
0060
01C0
0190
01E0
ENDCHAR
STARTCHAR Edieresis
ENCODING 203
SWIDTH 741 0
DWIDTH 15 0
BBX 14 18 0 0
BITMAP
0330
0330
0330
0000
3FFC
0E1C
0E08
1E08
1C28
1C60
3FE0
3CC0
3840
3848
7818
7030
7070
FFF0
ENDCHAR
STARTCHAR Ecaron
ENCODING 204
SWIDTH 741 0
DWIDTH 15 0
BBX 14 18 0 0
BITMAP
0318
0330
00E0
00C0
0000
3FFC
0E1C
0E08
1E08
1C28
1C60
3FE0
3CC0
3840
3808
7818
7030
FFF0
ENDCHAR
STARTCHAR Iacute
ENCODING 205
SWIDTH 444 0
DWIDTH 9 0
BBX 10 18 0 0
BITMAP
01C0
0380
0600
0000
3F00
0E00
0E00
1E00
1C00
1C00
3C00
3C00
3800
3800
7800
7000
7000
FC00
ENDCHAR
STARTCHAR Icircumflex
ENCODING 206
SWIDTH 444 0
DWIDTH 9 0
BBX 9 18 0 0
BITMAP
0700
0D80
1980
0000
3F00
0E00
0E00
1E00
1C00
1C00
3C00
3C00
3800
3800
7800
7000
7000
FC00
ENDCHAR
STARTCHAR Dcaron
ENCODING 207
SWIDTH 833 0
DWIDTH 16 0
BBX 15 18 0 0
BITMAP
0330
0360
01C0
0180
0000
3FE0
0E38
0E1C
1E1E
1C1E
1C0E
3C0E
3C0E
381E
381C
783C
7078
FFF0
ENDCHAR
STARTCHAR Eth
ENCODING 208
SWIDTH 833 0
DWIDTH 16 0
BBX 15 14 0 0
BITMAP
3FE0
0E38
0E1C
1E1E
1C0E
1C0E
FF0E
3C0E
381E
381C
783C
7078
70F0
FFC0
ENDCHAR
STARTCHAR Nacute
ENCODING 209
SWIDTH 852 0
DWIDTH 15 0
BBX 16 18 -1 0
BITMAP
001C
0038
0060
0000
3C0F
1E06
1E04
1F04
1F04
1784
13CC
33C8
21E8
21E8
20F8
2078
6070
F030
ENDCHAR
STARTCHAR Ncaron
ENCODING 210
SWIDTH 852 0
DWIDTH 15 0
BBX 16 18 -1 0
BITMAP
00CC
00D8
0070
0060
0000
3C0F
1E06
1E04
1F04
1F04
1784
13CC
33C8
21E8
21E8
20F8
6078
F030
ENDCHAR
STARTCHAR Oacute
ENCODING 211
SWIDTH 833 0
DWIDTH 15 0
BBX 14 18 0 0
BITMAP
0070
00E0
0180
0000
07C0
1C70
3838
783C
701C
E01C
E01C
E01C
E03C
E038
F078
7070
38E0
0F80
ENDCHAR
STARTCHAR Ocircumflex
ENCODING 212
SWIDTH 833 0
DWIDTH 15 0
BBX 14 18 0 0
BITMAP
01C0
0360
0660
0000
07C0
1C70
3838
783C
701C
E01C
E01C
E01C
E03C
E038
F078
7070
38E0
0F80
ENDCHAR
STARTCHAR Ohungarumlaut
ENCODING 213
SWIDTH 833 0
DWIDTH 15 0
BBX 14 18 0 0
BITMAP
0198
0330
0660
0000
07C0
1C70
3838
783C
701C
F01C
E01C
E01C
E03C
E038
E078
7070
38E0
0F80
ENDCHAR
STARTCHAR Odieresis
ENCODING 214
SWIDTH 833 0
DWIDTH 15 0
BBX 14 18 0 0
BITMAP
0660
0660
0660
0000
07C0
1C70
3838
783C
701C
F01C
E01C
E01C
E03C
E038
E078
7070
38E0
0F80
ENDCHAR
STARTCHAR multiply
ENCODING 215
SWIDTH 606 0
DWIDTH 10 0
BBX 9 10 0 1
BITMAP
8080
C180
6300
3600
1C00
1C00
3600
6300
C180
8080
ENDCHAR
STARTCHAR Rcaron
ENCODING 216
SWIDTH 796 0
DWIDTH 15 0
BBX 14 18 0 0
BITMAP
0198
01B0
00E0
00C0
0000
3FF8
0E3C
0E1C
1E1C
1C38
1C70
3FC0
3DE0
38E0
38E0
7874
7074
FC3C
ENDCHAR
STARTCHAR Uring
ENCODING 217
SWIDTH 833 0
DWIDTH 15 0
BBX 15 18 0 0
BITMAP
0180
0240
0240
0180
7E1E
3C0C
3C08
3808
7818
7810
7810
7010
7030
F020
F020
F060
78C0
3F80
ENDCHAR
STARTCHAR Uacute
ENCODING 218
SWIDTH 833 0
DWIDTH 15 0
BBX 15 18 0 0
BITMAP
0070
00E0
0180
0000
7E1E
3C0C
3C08
3808
3818
7810
7810
7010
7030
F020
F020
F060
78C0
3F80
ENDCHAR
STARTCHAR Uhungarumlaut
ENCODING 219
SWIDTH 833 0
DWIDTH 15 0
BBX 15 18 0 0
BITMAP
0198
0330
0660
0000
7E1E
3C0C
3C08
3808
7818
7810
7810
7010
7030
F020
F020
F060
78C0
3F80
ENDCHAR
STARTCHAR Udieresis
ENCODING 220
SWIDTH 833 0
DWIDTH 15 0
BBX 15 18 0 0
BITMAP
0330
0330
0330
0000
7E1E
3C0C
3C08
3808
3818
7810
7810
7010
7030
F020
F020
F060
78C0
3F80
ENDCHAR
STARTCHAR Yacute
ENCODING 221
SWIDTH 704 0
DWIDTH 13 0
BBX 13 18 0 0
BITMAP
00E0
01C0
0300
0000
FC78
7830
3820
3C40
1C40
1C80
0E80
0F00
0F00
0E00
1E00
1E00
1E00
3F00
ENDCHAR
STARTCHAR Tcedilla
ENCODING 222
SWIDTH 722 0
DWIDTH 13 0
BBX 13 18 0 -4
BITMAP
7FF8
6738
C710
8F10
8E10
0E00
1E00
1E00
1C00
1C00
3C00
3800
3800
FE00
1000
3800
1800
7000
ENDCHAR
STARTCHAR germandbls
ENCODING 223
SWIDTH 574 0
DWIDTH 12 0
BBX 12 18 -1 -3
BITMAP
03C0
0E60
0C70
1C70
1C70
1CE0
3980
38C0
38E0
38E0
70E0
70E0
71C0
7700
E000
E000
E000
C000
ENDCHAR
STARTCHAR racute
ENCODING 224
SWIDTH 519 0
DWIDTH 9 0
BBX 9 14 0 0
BITMAP
0180
0380
0700
0C00
0000
F380
7780
7B00
7000
7000
E000
E000
E000
E000
ENDCHAR
STARTCHAR aacute
ENCODING 225
SWIDTH 667 0
DWIDTH 12 0
BBX 11 14 0 0
BITMAP
0180
0380
0700
0C00
0000
0DC0
33C0
71C0
E1C0
E1C0
E380
E380
67A0
39C0
ENDCHAR
STARTCHAR acircumflex
ENCODING 226
SWIDTH 667 0
DWIDTH 12 0
BBX 11 14 0 0
BITMAP
0300
0700
0D80
1980
0000
0DC0
33C0
71C0
E1C0
E1C0
E380
E380
67A0
39C0
ENDCHAR
STARTCHAR abreve
ENCODING 227
SWIDTH 667 0
DWIDTH 12 0
BBX 11 14 0 0
BITMAP
0440
07C0
0380
0000
0000
0DC0
33C0
71C0
E1C0
E1C0
E380
E380
67A0
39C0
ENDCHAR
STARTCHAR adieresis
ENCODING 228
SWIDTH 667 0
DWIDTH 12 0
BBX 11 13 0 0
BITMAP
1980
1980
1980
0000
0DC0
33C0
71C0
E1C0
E1C0
E380
E380
67A0
39C0
ENDCHAR
STARTCHAR lacute
ENCODING 229
SWIDTH 389 0
DWIDTH 6 0
BBX 7 18 0 0
BITMAP
0E
1C
30
00
78
38
38
38
70
70
70
70
70
E0
E0
E0
E8
F0
ENDCHAR
STARTCHAR cacute
ENCODING 230
SWIDTH 537 0
DWIDTH 10 0
BBX 10 14 0 0
BITMAP
00C0
01C0
0380
0600
0000
0F00
3180
7380
E300
E000
E000
E000
6300
3C00
ENDCHAR
STARTCHAR ccedilla
ENCODING 231
SWIDTH 537 0
DWIDTH 10 0
BBX 9 13 0 -4
BITMAP
0F00
3180
7380
E300
E000
E000
E000
6300
3C00
0800
1C00
0C00
3800
ENDCHAR
STARTCHAR ccaron
ENCODING 232
SWIDTH 537 0
DWIDTH 10 0
BBX 10 14 0 0
BITMAP
0CC0
0D80
0700
0600
0000
0F00
3180
7380
E300
E000
E000
E000
6300
3C00
ENDCHAR
STARTCHAR eacute
ENCODING 233
SWIDTH 519 0
DWIDTH 10 0
BBX 9 14 0 0
BITMAP
0300
0700
0E00
1800
0000
0F00
3180
7180
E380
E700
F800
E000
6300
3C00
ENDCHAR
STARTCHAR eogonek
ENCODING 234
SWIDTH 519 0
DWIDTH 10 0
BBX 9 13 0 -4
BITMAP
0F00
3180
7180
E380
E700
F800
E000
6300
3C00
3000
E000
C800
F000
ENDCHAR
STARTCHAR edieresis
ENCODING 235
SWIDTH 519 0
DWIDTH 10 0
BBX 9 13 0 0
BITMAP
3300
3300
3300
0000
0F00
3180
7180
E380
E700
F800
E000
6300
3C00
ENDCHAR
STARTCHAR ecaron
ENCODING 236
SWIDTH 519 0
DWIDTH 10 0
BBX 10 14 0 0
BITMAP
0CC0
0D80
0700
0600
0000
0F00
3180
7180
E380
E700
F800
E000
6300
3C00
ENDCHAR
STARTCHAR iacute
ENCODING 237
SWIDTH 389 0
DWIDTH 6 0
BBX 5 14 0 0
BITMAP
18
38
70
C0
00
F0
70
70
70
E0
E0
E0
E8
70
ENDCHAR
STARTCHAR icircumflex
ENCODING 238
SWIDTH 389 0
DWIDTH 6 0
BBX 6 14 0 0
BITMAP
18
38
6C
CC
00
F0
70
70
70
E0
E0
E0
E8
70
ENDCHAR
STARTCHAR dcaron
ENCODING 239
SWIDTH 718 0
DWIDTH 14 0
BBX 16 14 0 0
BITMAP
00F2
0077
0077
0073
00E2
0EE2
31E4
70E0
E0E0
E1C0
E1C0
E1C0
63D0
3CE0
ENDCHAR
STARTCHAR dmacron
ENCODING 240
SWIDTH 667 0
DWIDTH 13 0
BBX 14 14 0 0
BITMAP
00F0
0070
0FFC
0FFC
00E0
0EE0
31E0
70E0
E0E0
E1C0
E1C0
E1C0
63D0
3CE0
ENDCHAR
STARTCHAR nacute
ENCODING 241
SWIDTH 685 0
DWIDTH 12 0
BBX 11 14 0 0
BITMAP
0060
00E0
01C0
0300
0000
F380
77C0
79C0
71C0
71C0
E380
E380
E3A0
E3C0
ENDCHAR
STARTCHAR ncaron
ENCODING 242
SWIDTH 685 0
DWIDTH 12 0
BBX 11 14 0 0
BITMAP
0660
06C0
0380
0300
0000
F380
77C0
79C0
71C0
71C0
E380
E380
E3A0
E3C0
ENDCHAR
STARTCHAR oacute
ENCODING 243
SWIDTH 574 0
DWIDTH 11 0
BBX 10 14 0 0
BITMAP
0300
0700
0E00
1800
0000
0F00
3180
71C0
E1C0
E1C0
E1C0
E380
6300
3C00
ENDCHAR
STARTCHAR ocircumflex
ENCODING 244
SWIDTH 574 0
DWIDTH 11 0
BBX 10 14 0 0
BITMAP
0300
0700
0D80
1980
0000
0F00
3180
71C0
E1C0
E1C0
E1C0
E380
6300
3C00
ENDCHAR
STARTCHAR ohungarumlaut
ENCODING 245
SWIDTH 574 0
DWIDTH 11 0
BBX 11 14 0 0
BITMAP
0660
0CC0
1980
0000
0000
0F00
3180
71C0
E1C0
E1C0
E1C0
E380
6300
3C00
ENDCHAR
STARTCHAR odieresis
ENCODING 246
SWIDTH 574 0
DWIDTH 11 0
BBX 10 13 0 0
BITMAP
1980
1980
1980
0000
0F00
3180
71C0
E1C0
E1C0
E1C0
E380
6300
3C00
ENDCHAR
STARTCHAR divide
ENCODING 247
SWIDTH 606 0
DWIDTH 10 0
BBX 8 10 0 1
BITMAP
18
18
00
00
FF
FF
00
00
18
18
ENDCHAR
STARTCHAR rcaron
ENCODING 248
SWIDTH 519 0
DWIDTH 9 0
BBX 9 14 0 0
BITMAP
1980
1B00
0E00
0C00
0000
F380
7780
7B00
7000
7000
E000
E000
E000
E000
ENDCHAR
STARTCHAR uring
ENCODING 249
SWIDTH 685 0
DWIDTH 12 0
BBX 11 14 0 0
BITMAP
0C00
1200
1200
0C00
0000
F1C0
71C0
71C0
71C0
E380
E380
E780
FBA0
73C0
ENDCHAR
STARTCHAR uacute
ENCODING 250
SWIDTH 685 0
DWIDTH 12 0
BBX 11 14 0 0
BITMAP
0300
0700
0E00
1800
0000
F1C0
71C0
71C0
71C0
E380
E380
E780
FBA0
73C0
ENDCHAR
STARTCHAR uhungarumlaut
ENCODING 251
SWIDTH 685 0
DWIDTH 12 0
BBX 11 14 0 0
BITMAP
0CC0
1980
3300
0000
0000
F1C0
71C0
71C0
71C0
E380
E380
E780
FBA0
73C0
ENDCHAR
STARTCHAR udieresis
ENCODING 252
SWIDTH 685 0
DWIDTH 12 0
BBX 11 13 0 0
BITMAP
1980
1980
1980
0000
F1C0
71C0
71C0
71C0
E380
E380
E780
FBA0
73C0
ENDCHAR
STARTCHAR yacute
ENCODING 253
SWIDTH 519 0
DWIDTH 10 0
BBX 10 18 -1 -4
BITMAP
00C0
01C0
0380
0600
0000
30C0
78C0
B840
1C80
1C80
0F00
0F00
0600
0600
0400
C800
F000
6000
ENDCHAR
STARTCHAR tcedilla
ENCODING 254
SWIDTH 407 0
DWIDTH 8 0
BBX 7 16 1 -4
BITMAP
38
38
38
FE
70
70
70
E0
E0
E0
E8
F0
20
70
30
E0
ENDCHAR
STARTCHAR dotaccent
ENCODING 255
SWIDTH 377 0
DWIDTH 8 0
BBX 2 3 3 10
BITMAP
C0
C0
C0
ENDCHAR
ENDFONT
